<svg id="Capa_1" data-name="Capa 1" xmlns="http://www.w3.org/2000/svg" viewBox="0 0 575.51 623.7"><defs><style>.cls-1{fill:#fff;}</style></defs><title>Logo blanco</title><path class="cls-1" d="M310.22,63.8C279.18,53,248,42.59,215.61,58.48c-6.73,3.31-11.08,2.51-16.71-2.08-15.51-12.65-34.73-20.29-53.56-19.31-17.87.94-28.76-8.25-41.74-15.68s-14.6-6.88-20,6.88c-9.38,24-9.89,47.82,2.31,71.18a53.31,53.31,0,0,0,13.84,17.32c12.53,10,22.95,7.4,30.19-6.95,1.72-3.42.29-4.76-1.91-6.28-3.91-2.7-7.91-5.26-12.06-8,4-3.53,11.75,1.39,13.28-5.57,1.37-6.22-4-9.94-7.63-14-4.83-5.42-10.63-10.12-14.47-20.31,13.06,12.44,27.29,15.88,42.55,22.67l-7-13.87L157,68.76C143.86,54,123.73,52,109.63,39.05c23.74,12.54,52.81,11.2,75.55,29.62-15.12,10.14-23.88,24.15-31.32,39.26-4.07-2.85.27-6.78-3.07-10C131.06,126,109.67,152.16,72.27,160.6c15.41,8.69,30.17,5.46,48,2.7-20.51,17.79-47.1,22.62-59.07,48.35l27.09-12.09c-17,19.08-31.78,36.31-37.12,62.49C63.22,248.11,74,237.16,90.59,231c-27.07,32.28-31.34,48.5-35.19,130.56-8.18-12.36-10.66-43.61-5.74-73.61-6,2.24-6.84,9.25-12.72,12.83-1.1-15.57.15-30.16,2.48-44.7A289.84,289.84,0,0,1,50,213.3c-6.27-.72-12.39,2.61-19.14-.66,19.1-10,32.18-26.58,52-37.88-13.06-3.33-22.5-8.37-27.93-20.46,18-1.82,34.49-6.16,48.75-18.29C83.2,118.93,68.81,98.31,63.84,71.9c3-.56,2.52,4.34,5.69,2.67-2.85-20,1.62-39.29,10.44-57.69,5.6-11.68,9.49-13,21-7.27,7.17,3.58,14.09,7.68,22.85,12.5l-4.1-7.53c1.68.55,2.79.67,3.61,1.22,11.9,8,25.07,12.89,39,15.89,14.71,3.18,28.62,8.38,40.54,17.66,4.44,3.46,7.82,3,11.95.53C240.4,34.71,267.29,35,294.38,44.6c16.19,5.71,31.64,5.9,47.86.25,27.47-9.57,54.7-10.19,80.67,5.3,3.86,2.3,7,2.55,11-.57,12.23-9.55,26.49-14.8,41.55-18.08,11.31-2.46,21.71-9.75,32.35-11.14,12.9-1.69,22.12-9.21,33.34-13.11,7.4-2.57,11.23.78,14.31,6.64,10.06,19.17,14.92,39.37,12,61.66l5.88-4.15C568,98.3,554,119.16,533.08,136a80.77,80.77,0,0,0,49,17.7c-4.86,12.42-14.19,17.47-28.17,21,20,10.92,32.93,28,52.43,37.87-6.81,3-12.54.58-19.28.23,8.88,28.59,14.68,57.27,13.15,89.21L587.5,286.26c3.24,26.83,4,51.47-5,75.55-2.68-45.57-.82-92.29-35.38-130.17,16.1,5.07,26.4,16.5,37.45,27.46-4-21.55-16.65-38.2-31.06-54.14,8.38-2.88,13.56,4.64,22,6.2-11.43-25.07-37.94-30.12-58.08-47.06,17.21,1.52,32.13,5.29,47.55-3.38-37.3-8.45-58.89-34.36-78.59-62.68-3.66,3.08.66,6.87-2.93,10-7.91-14.71-16-29.19-30.51-38.36,9.56-10.68,33.31-20.34,74.12-30.1-14.43,13.36-34.72,14.41-48.58,28.07,6,1.69,9.45-2.59,14.3-2.44.78,4.44-3.58,7-4.46,12.38,14.14-5.76,28.32-9.34,39.79-20.48.44,5.61-3.41,8.34-6,11.55s-5.64,5.93-8.34,9c-3.15,3.6-7.46,7.14-6,12.46,1.75,6.53,8.44,2.58,12.37,4.68,1.14,1.33.09,1.86-.81,2.38-16.83,9.64-16.48,9.31-3.58,23.09,5.52,5.89,10.42,3.11,14.91.6C549.58,110.2,557,92.18,559.67,72c2.23-16.59-1.41-32.42-7.79-47.88-3.4-8.24-7.85-8.61-14.58-4.8C525.42,26,514.91,37.86,500.93,37.35c-11.28-.41-21.5,1.45-32,4-9.46,2.29-19,5.49-26.16,11.93-8.69,7.85-16.34,8-26.59,3.24-15.55-7.25-32.34-8.94-49-4-13.39,4-28,3.73-40.35,11.27C323.26,69,313.74,69,310.22,63.8Z" transform="translate(-30.84 -6.3)"/><path class="cls-1" d="M414.18,375.33c-1.94-2.29-3.6-5.41-8.63-5.92a157.93,157.93,0,0,1,20.33,39.25c4.43,12.42,2,17.8-10.5,22.3-12.74,4.58-23.71,11.76-34.1,20.52,4.4,3,7.3-.55,10.35-1.92,9.54-4.27,19.14-8.26,29.66-9.23,3.92-.36,9.42-2.33,11.17,1.9,1.51,3.66-2.76,7.35-5.61,10.23C416.47,463,403,467.34,389.1,470.29c-9.65,2-19.48,3.24-29.23,4.82,25.51,5.19,50,4.24,72.92-12.67-10.21,25.47-29.3,32.62-73.16,28.51,16.5,11.12,34.32,10,53.33,8.3-18.62,21.14-70.46,16.54-84.24-17.34-4.49-11-.8-21,9.81-26.35,5.93-3,12.46-4.77,18.83-6.73,9.63-3,19.18-6,26.8-13,10.83-10,12.4-21.72,4.68-34.83-3.27,19.34-14.38,27.55-34.13,25.53-11.44-1.18-23.07-3.09-33.44,4.28-1.67,1.19-3.16,1.6-5,.3-11.08-7.82-23.36-5.56-35.59-4.3-17.92,1.84-30-7.95-32.27-26.93-8.88,17.53-4.77,31.34,11.08,41,10.67,6.47,23.14,8,34.49,12.49,14.25,5.69,19.54,16.27,14.13,29.13-14.11,33.52-66.19,38.46-84.47,17,9.29-1.52,18.37,2.62,27.76.75,8.84-1.76,17.64-3.24,26-9.36-42.87,4.7-68-5.1-71.68-27.58,21.6,16.31,45.89,16.91,71.11,12.17-5.26-1.44-10.68-2-16-2.77-15.91-2.35-31.53-5.77-44.93-15.32-5.38-3.83-13.32-9.25-10.75-15.16,2.43-5.6,11.47-1.66,17.5-.76,10.8,1.61,20.15,8,33.7,12a81,81,0,0,0-30.84-20.94c-18-7.07-19.71-11.23-12.26-29.31,4.76-11.56,10.69-22.55,16.56-33.56C203.4,394,190.67,424.48,192.17,460.1c1,24.32,10.65,45.29,33.25,56.94,9.9,5.11,10.27,11.73,7.94,19.94-1.37,4.87-4.46,9.32-7.1,13.77-4.47,7.55-5.93,15.27-3,24.45,4.09-3.92,3.19-9.67,7.8-12.2,2.7,14.45,2.7,14.45,18.49,34.87,4-1.47,1.86-5.84,4.15-8.84,6.48,4.45,13.51,8.49,15.5,16.51,1.78,7.17-.21,15.13,4.17,23.31,3.82-8.33,7.39-15.47,13.68-22.48.23,5.25.4,9.06.58,13.19,6.58-2.17,6.75-9.32,11.53-12.16,2.5,3.09,1.84,7.92,6.36,10,2.42-7,2.19-16,11.91-16.88,11.9-1.13,11,10.22,15.18,18L338.19,607c4.11,4.59,5.26,10.22,11.18,12.73.2-4.24.38-8,.7-14.66l15.32,25c2-17.06-.07-33.81,19-40.57.41,3.07-.37,6.77,3.82,8.82,6.61-11.5,17.79-20.43,17.1-38.77,3.85,7.36,5.91,11.3,8.57,16.37,2.52-14.39,2.41-14.84-6.7-30.72-7.8-13.6-6-21.09,6.6-28.86,13.93-8.56,23.51-20.78,27.58-36.48C451.57,440.1,440,405.78,414.18,375.33Zm-53.92,211a7.12,7.12,0,0,1-3-1c-1.33-.65-2.49-1.88-3.87-2.17a164.47,164.47,0,0,0-68.8.14c-6.77,1.44-11.36,2-17-1.43-18.49-11.4-19.42-19-16.57-39.1,2.19-15.49,8.38-17.57,21.46-17.46,8.18.06,16.45-3.93,24.56-6.5,7.08-2.24,14-4.87,21.62-4.58,8.36-.2,16.07,2.56,23.68,5.52C353.51,524.08,365,527,377,526.2c6-.42,7.64,1.22,6.7,7.13-.77,4.82,1.46,9.4,3.16,13.94C392.38,561.9,376,585.92,360.26,586.3Z" transform="translate(-30.84 -6.3)"/><path class="cls-1" d="M282.32,259.17c-2.46-.32-3,1.25-3.82,2.41-9.07,12.39-12.33,12.7-23,1.26A43.36,43.36,0,0,0,229.41,249c-8.44-1.21-17-1.26-25.51-2.22C183,244.44,173.39,230.27,179,210.9c2.4-8.27,7.44-14.78,14.46-22.13a38.4,38.4,0,0,0-17.86,9.44c-4.9,4.34-7.89,10.26-12.81,16.94a70.7,70.7,0,0,1,5.82-37.73A75.41,75.41,0,0,1,190,149.52c-43.92,17.1-58.41,99.89-24.18,135.06.47-5.16.82-10.3,4.7-14.44,5.3,28,14.68,38,35.38,37.58a102.66,102.66,0,0,1-8-6.44c-8.38-8.21-13.54-17.77-11.07-30,.76-3.72,2.74-7.4,6.72-8.13,5-.91,5.51,3.49,6.88,7,6.15,15.8,18.31,24.48,34.74,25.57,9.26.62,10.47,4.77,9.15,11.9-1.74,9.38-3.81,18.7-5.95,29.06a62.92,62.92,0,0,0,15.12-20.22c4.8-10.07,10.09-19.27,18.51-27.11S283.19,270.71,282.32,259.17Zm-53.87-2.28c2.82-.1,5,1.66,5,4.55s-2.12,4.36-4.86,4.84c-2.74-.72-4.51-2.26-4.27-5.26A4.2,4.2,0,0,1,228.45,256.89Zm15.12,24.62c-3.28,1.48-7.14,1.68-9.08,2.08-14.23-.49-23-10-21.76-21.87.29-2.8,0-6.37,4.51-6.11s2.44,3.47,2.58,5.73c.82,13,9.52,18.22,21.35,12.88,2.7-1.21,5.87-6.79,8.47,0C251.74,279.62,246.46,280.21,243.57,281.51Z" transform="translate(-30.84 -6.3)"/><path class="cls-1" d="M482.26,184.2c-6.14-17-18-28.9-35.14-35,21.63,20.27,31.75,44.73,25.73,64-6.69-9.84-12.69-20.44-28.07-23,12.22,12.79,18.76,25.7,12.63,40.85-6,14.78-20,16-33.83,16.19-2.23,0-4.48,0-6.69.2-12.36,1.39-24.12,4.25-33.43,13.42-14.26,14-14.9,13.94-26.72-1.48-.27-.34-1.27-.12-2-.18-.72,9.67.53,19.87,7.37,26.1,12.5,11.38,17.89,26.89,27,40.14,2.55,3.7,5.45,7.17,10.06,13.21-2.65-12.41-4.77-21.4-6.45-30.47-1.39-7.49-.36-12,9.66-12.55,15.47-.84,27.1-9.26,33.67-23.82,1.67-3.7,1.23-10.31,7.81-8.49,5.08,1.42,6.64,6.56,7,11.67a30.79,30.79,0,0,1-3.2,15.09c-3.55,7.69-10.22,12.63-17.39,18.94,24.68-2.75,35-16.79,35.68-41.44,2.1,4.45,3.33,6.35,3.9,8.43.79,2.83,1.07,5.81,2,11.5C489.69,252.58,494.91,219.12,482.26,184.2Zm-73.74,72.71c2.87.13,4.35,2.13,4.23,5.29-.68,2.56-2.25,4.48-5.23,3.84-2.14-.46-4-2-3.93-4.52A4.5,4.5,0,0,1,408.52,256.91Zm3.81,25c-8.06,3.14-16,2.14-23.38-2.71-2.31-1.52-2.58-3.23-1.37-5.62,1.71-3.36,3.31-2.23,6.09-.91,15.13,7.18,21.23,3.73,23.2-13.07.33-2.77.7-4.31,3.58-3.91,5,.7,3.24,4.93,3.94,7.45C424.15,272.12,420.41,278.73,412.33,281.87Z" transform="translate(-30.84 -6.3)"/><path class="cls-1" d="M310.22,63.8l3.17,2.59c3.41-5.53,6.83-5.58,10.24,0l3.19-2.56c-.39,6.27,3.46,7.1,8.56,7.22,11.52.29,23.09.47,34.54,1.63,15.16,1.53,28.29,7.05,37.44,24.12-21.75-13.77-43-16-65.21-13.08a46.26,46.26,0,0,0-6.57,1.18c-4.6,1.31-10.53,2.32-8.87,8.89,1.34,5.31,6.26,5.26,11.09,4.27,20.3-4.14,38.92,1.26,57.18,9.79,17.15,8,34.27,16.72,55.71,13.25-6.27,7.24-13.34,7.87-20.58,7.72-15.85-.33-30.66-5.53-45.55-10.16-15.78-4.91-32-9.59-48.19-5.51-12.36,3.13-23.13,3.35-35.58.07-16.07-4.24-32.4.47-48.18,5.4-14.18,4.43-28.3,9.27-43.3,10.13-7.83.45-15.49-.07-23.68-7.45,24.45,3.34,43.16-7.52,62.46-16.08,16.42-7.28,33.21-10.75,51-7,5.36,1.13,10.49.74,11.43-5.24.89-5.64-4.63-7.14-8.95-8-24.34-4.85-47.83-3.15-70.16,10.67,6.09-13.61,16.85-20.95,34.47-22.81,11.82-1.25,23.76-1.42,35.65-1.79C306.61,70.88,310.52,70,310.22,63.8Z" transform="translate(-30.84 -6.3)"/><path class="cls-1" d="M472.34,456.44c8.66-19.67,22-35,37.66-48.36,12.87-11,22.87-23.45,23.08-44.54,5.4,13.85,6.07,25.12,6.74,38.95,18.93-28.34,25.89-57.45,24.61-90.22,15,44.86,4,108.11-40.75,132.64.18-7.27,4.07-13.62,2.95-21.69-12.36,4.45-20.21,12.92-25.4,24.27-5.7,12.47-9.52,25.83-17.32,37.31-2.24,3.31-3.81,7.28-7.86,9.28-.78-6,4.56-15.18-2.16-16.93-6-1.56-7.72,8.42-10.75,13.69-7.3,12.72-15.39,24.73-28.13,33.15,20.8-29.69,29.87-62.36,27.14-98.56A76,76,0,0,1,472.34,456.44Z" transform="translate(-30.84 -6.3)"/><path class="cls-1" d="M72.49,334c3.25,23.64,9.29,46.28,24.69,68.08.69-13.38,1.38-24.64,6.64-38.41.5,21.53,11.07,34.32,24.43,45.53,15.51,13,27.9,28.49,36.5,47.43,1.32-11.15,4.16-21.45,10.11-31.2-2.93,35.52,6.6,67.65,25.64,97.42-12.3-9.1-20.68-20.81-27.38-33.85-.51-1-1-2-1.57-2.94-2.17-3.79-4-10.44-8.22-9.29-5.65,1.53-2.75,8.16-2.66,12.73a48.9,48.9,0,0,0,1,5.93c-11.65-12.08-17-25.82-22.21-39.6-5.39-14.3-13-26.55-28.82-32.76-1.88,7.69,2.35,14.36,3,21.78-37.49-21.58-53.18-63.89-45-119.68C74.34,326.25,69.9,331.67,72.49,334Z" transform="translate(-30.84 -6.3)"/><path class="cls-1" d="M143.41,352.43c-5.56,24.15,2.53,42.5,13.79,61.93-56.68-41.89-60.3-120.17-25.77-175.46-1.42,12.37-2.76,22.77-3.77,33.19-1.56,16-2,32,2.58,47.59,5,17.09,13.36,19.42,27,8.06,2.82-2.35,5.94-4.34,10.33-7.52-1,9.8-.74,18.16,8,22.81,9.5,5,19,5.13,28.94.79,6.07-2.66,12.29-5.28,21.43-5.28-21.46,17.73-33,39.88-40.68,66.58-2-9.84.16-17.2,1.42-24.6,2.55-15-.21-22.8-9-25.53s-16.54,3-22.47,17C147.45,369,147.47,361.06,143.41,352.43Z" transform="translate(-30.84 -6.3)"/><path class="cls-1" d="M505.4,238.27c37.71,61.54,26.42,139.54-24.69,174.41,11-18.73,18.3-36.76,13-59.68-4.26,7.61-4,15.74-11.23,18.92-2.8-.8-2.25-3.48-3.08-5.41-3.6-8.36-9.59-13.77-19.06-11.55-9.78,2.29-12.18,10.12-11.07,19.12,1.18,9.53,4.4,18.84,2.8,31.37-8.28-26.73-19.16-49.26-41-66.59,9.45-.7,16,2.61,22.58,5.45,7.63,3.31,15.14,3.33,22.84,1,10.63-3.27,14-9.21,13.33-23.61,5.45,1.09,8.84,5.18,12.7,8.46,9.28,7.88,16.62,6.57,22-4.38,4.35-8.85,5.57-18.51,5.59-28.2s-.45-19.32-1.21-28.94C508.16,259.37,506.8,250.19,505.4,238.27Z" transform="translate(-30.84 -6.3)"/><path class="cls-1" d="M217.28,145.53c13,2.56,25.3-.14,37.29-4.26,18-6.2,35.68-11.21,55.5-7.89a68,68,0,0,0,24.56-.46c13.94-3,27.17,1.26,40.27,5.81,14.39,5,28.86,10.09,45.32,5.63-7,6.49-11.73,8.23-22.07,8.51-13.89.38-27.24-3.37-40.82-5.34-12.23-1.78-24.45-3.23-35.76,3.65-2.15,1.31-3.75,1.43-6,.09-12.06-7.15-25-5.51-37.94-3.47-12.82,2-25.47,5.42-38.62,5C231.11,152.56,223.7,150.93,217.28,145.53Z" transform="translate(-30.84 -6.3)"/><path class="cls-1" d="M247.73,183.42c11.13-14.12,23.82-18.51,39.83-21.86-7.86,7.55-5,10.5,2.35,12.17,10.53,2.38,19.8-4.9,28.83-4.6,9.23.31,18.4,6.77,28.89,4.47,7.83-1.71,8.66-5.18,2.26-11.71,15.59,2.85,28.53,7.18,38.58,20.72-14.27-2.84-27-4.18-39.83-.75s-22.9,8.91-23.51,24.21c-.18,4.41-2,10.35-6.38,10.58-4.79.25-6.54-5.87-6.72-10.08-.67-15.8-11-21.58-24.24-24.81C275.24,178.7,262.74,179.26,247.73,183.42Z" transform="translate(-30.84 -6.3)"/><path class="cls-1" d="M370.47,396.56c1.87-17.38-5.89-31.78-13.46-46.33-7.94-15.26-13.78-31-9.22-51.06,5.75,14.56,14.27,24.75,24.14,34.15-4.29,2.19-7-1.19-11.27-1C368,353.32,385.08,372.68,370.47,396.56Z" transform="translate(-30.84 -6.3)"/><path class="cls-1" d="M276.5,333c-4.12-1.74-7.21,3.15-11.19.24,9.41-9.44,18.39-19.22,23.53-33.61,4.37,12.9,2,24-1.84,34.57-3.1,8.67-7.42,16.94-11.66,25.15-6.08,11.77-9.75,24-8.76,37.35C252.15,372.93,268.48,353.59,276.5,333Z" transform="translate(-30.84 -6.3)"/><path class="cls-1" d="M72,334l-3.82-8.81c-.94-5,1.89-9,3.82-13.53Z" transform="translate(-30.84 -6.3)"/></svg>